<?xml version="1.0" encoding="UTF-8" standalone="no"?>
<!-- Generator: Adobe Illustrator 16.0.4, SVG Export Plug-In . SVG Version: 6.00 Build 0)  -->

<svg
   xmlns:dc="http://purl.org/dc/elements/1.1/"
   xmlns:cc="http://creativecommons.org/ns#"
   xmlns:rdf="http://www.w3.org/1999/02/22-rdf-syntax-ns#"
   xmlns:svg="http://www.w3.org/2000/svg"
   xmlns="http://www.w3.org/2000/svg"
   xmlns:sodipodi="http://sodipodi.sourceforge.net/DTD/sodipodi-0.dtd"
   xmlns:inkscape="http://www.inkscape.org/namespaces/inkscape"
   version="1.1"
   id="Layer_1"
   x="0px"
   y="0px"
   width="56.693px"
   height="56.693px"
   viewBox="0 0 56.693 56.693"
   enable-background="new 0 0 56.693 56.693"
   xml:space="preserve"
   inkscape:version="0.48.2 r9819"
   sodipodi:docname="25-blogger.svg"><metadata
   id="metadata9"><rdf:RDF><cc:Work
       rdf:about=""><dc:format>image/svg+xml</dc:format><dc:type
         rdf:resource="http://purl.org/dc/dcmitype/StillImage" /><dc:title></dc:title></cc:Work></rdf:RDF></metadata><defs
   id="defs7" /><sodipodi:namedview
   pagecolor="#ffffff"
   bordercolor="#666666"
   borderopacity="1"
   objecttolerance="10"
   gridtolerance="10"
   guidetolerance="10"
   inkscape:pageopacity="0"
   inkscape:pageshadow="2"
   inkscape:window-width="721"
   inkscape:window-height="480"
   id="namedview5"
   showgrid="false"
   inkscape:zoom="4.1627714"
   inkscape:cx="28.3465"
   inkscape:cy="28.3465"
   inkscape:window-x="281"
   inkscape:window-y="47"
   inkscape:window-maximized="0"
   inkscape:current-layer="Layer_1" />
<path
   fill-rule="evenodd"
   clip-rule="evenodd"
   d="M52.279,26.151l-0.406-0.84l-0.68-0.531c-0.887-0.695-5.375,0.045-6.584-1.053  c-0.857-0.789-0.99-2.211-1.25-4.131c-0.48-3.734-0.787-3.926-1.369-5.186c-2.113-4.488-7.848-7.863-11.787-8.332H19.531  c-8.395,0-15.257,6.877-15.257,15.271v17.813c0,8.379,6.862,15.242,15.257,15.242h17.534c8.395,0,15.215-6.863,15.262-15.242  l0.094-12.338L52.279,26.151z M19.726,18.559h8.461c1.613,0,2.922,1.311,2.922,2.91c0,1.596-1.309,2.922-2.922,2.922h-8.461  c-1.615,0-2.923-1.326-2.923-2.922C16.803,19.87,18.111,18.559,19.726,18.559z M36.918,41.845H19.726  c-1.615,0-2.923-1.328-2.923-2.906c0-1.602,1.308-2.906,2.923-2.906h17.192c1.605,0,2.906,1.305,2.906,2.906  C39.824,40.517,38.523,41.845,36.918,41.845z"
   id="path3"
   style="fill:#f57d00;fill-opacity:1" />
</svg>