<?xml version="1.0" encoding="UTF-8" standalone="no"?>
<!-- Generator: Adobe Illustrator 16.0.4, SVG Export Plug-In . SVG Version: 6.00 Build 0)  -->

<svg
   xmlns:dc="http://purl.org/dc/elements/1.1/"
   xmlns:cc="http://creativecommons.org/ns#"
   xmlns:rdf="http://www.w3.org/1999/02/22-rdf-syntax-ns#"
   xmlns:svg="http://www.w3.org/2000/svg"
   xmlns="http://www.w3.org/2000/svg"
   xmlns:xlink="http://www.w3.org/1999/xlink"
   xmlns:sodipodi="http://sodipodi.sourceforge.net/DTD/sodipodi-0.dtd"
   xmlns:inkscape="http://www.inkscape.org/namespaces/inkscape"
   version="1.1"
   id="Layer_1"
   x="0px"
   y="0px"
   width="56.693px"
   height="56.693px"
   viewBox="0 0 56.693 56.693"
   enable-background="new 0 0 56.693 56.693"
   xml:space="preserve"
   inkscape:version="0.48.2 r9819"
   sodipodi:docname="paizo.svg"
   inkscape:export-filename="/Users/aeakett/firstdraftsandscrapsofpaper/img/paizo-32x32.png"
   inkscape:export-xdpi="50.799923"
   inkscape:export-ydpi="50.799923"><metadata
   id="metadata9"><rdf:RDF><cc:Work
       rdf:about=""><dc:format>image/svg+xml</dc:format><dc:type
         rdf:resource="http://purl.org/dc/dcmitype/StillImage" /><dc:title></dc:title></cc:Work></rdf:RDF></metadata><defs
   id="defs7"><radialGradient
     r="149.50005"
     fy="673.53516"
     fx="525.66193"
     cy="673.53516"
     cx="525.66193"
     gradientTransform="matrix(0.60113121,1.0501092e-8,-2.8171653e-8,2.4913844,180.84056,-1015.2754)"
     gradientUnits="userSpaceOnUse"
     id="radialGradient3327"
     xlink:href="#linearGradient3223"
     inkscape:collect="always" /><radialGradient
     r="245"
     fy="564.09448"
     fx="355"
     cy="564.09448"
     cx="355"
     gradientTransform="matrix(1.7507568,6.3254558e-8,-1.9845572e-8,1.0583001,-266.51866,-202.88679)"
     gradientUnits="userSpaceOnUse"
     id="radialGradient5080"
     xlink:href="#linearGradient3256"
     inkscape:collect="always" /><clipPath
     clipPathUnits="userSpaceOnUse"
     id="clipPath4674"><path
       inkscape:connector-curvature="0"
       d="M 0,72 54,72 54,0 0,0 0,72 z"
       id="path4676" /></clipPath><clipPath
     clipPathUnits="userSpaceOnUse"
     id="clipPath4686"><path
       inkscape:connector-curvature="0"
       d="m 12.1836,61.3682 28.5908,0 0,-37.8692 -28.5908,0 0,37.8692 z"
       id="path4688" /></clipPath><clipPath
     clipPathUnits="userSpaceOnUse"
     id="clipPath4810"><path
       inkscape:connector-curvature="0"
       d="m 17.4795,57.0562 7.3486,0 0,-7.7188 -7.3486,0 0,7.7188 z"
       id="path4812" /></clipPath><clipPath
     clipPathUnits="userSpaceOnUse"
     id="clipPath4830"><path
       inkscape:connector-curvature="0"
       d="m 30.6465,60.2061 6.0137,0 0,-8.9356 -6.0137,0 0,8.9356 z"
       id="path4832" /></clipPath><linearGradient
     id="linearGradient3229-0"
     inkscape:collect="always"><stop
       id="stop3231-2"
       offset="0"
       style="stop-color:#ffffff;stop-opacity:1;" /><stop
       id="stop3234-4"
       offset="1"
       style="stop-color:#ffffff;stop-opacity:0;" /></linearGradient><linearGradient
     id="linearGradient3256-8"><stop
       id="stop3258-6"
       offset="0"
       style="stop-color:#e6e6e6;stop-opacity:1;" /><stop
       id="stop3260-50"
       offset="1"
       style="stop-color:#ffffff;stop-opacity:1;" /></linearGradient><linearGradient
     id="linearGradient3239-9"><stop
       id="stop3241-0"
       offset="0"
       style="stop-color:#ffffff;stop-opacity:1;" /><stop
       id="stop3243-0"
       offset="1"
       style="stop-color:#dddddd;stop-opacity:1;" /></linearGradient><linearGradient
     id="linearGradient3231-6"><stop
       id="stop3233-13"
       offset="0"
       style="stop-color:#dddddd;stop-opacity:1;" /><stop
       id="stop3235-8"
       offset="1"
       style="stop-color:#ffffff;stop-opacity:1;" /></linearGradient><linearGradient
     id="linearGradient3223-9"
     inkscape:collect="always"><stop
       id="stop3225-3"
       offset="0"
       style="stop-color:#ffffff;stop-opacity:1;" /><stop
       id="stop3227-4"
       offset="1"
       style="stop-color:#ffffff;stop-opacity:0;" /></linearGradient><inkscape:perspective
     id="perspective9-4"
     inkscape:persp3d-origin="372.04724 : 350.78739 : 1"
     inkscape:vp_z="744.09448 : 526.18109 : 1"
     inkscape:vp_y="0 : 1000 : 0"
     inkscape:vp_x="0 : 526.18109 : 1"
     sodipodi:type="inkscape:persp3d" /><radialGradient
     gradientUnits="userSpaceOnUse"
     gradientTransform="matrix(0.60113121,1.0949428e-8,-2.8171653e-8,2.5977523,-28.542598,-1107.8463)"
     r="149.50005"
     fy="673.53516"
     fx="525.66193"
     cy="673.53516"
     cx="525.66193"
     id="radialGradient3229-6"
     xlink:href="#linearGradient3223-9"
     inkscape:collect="always" /><clipPath
     id="clipPath3252-6"
     clipPathUnits="userSpaceOnUse"><path
       inkscape:connector-curvature="0"
       sodipodi:nodetypes="cscsc"
       id="path3254-1"
       d="m 582.1918,395.26609 c -0.67677,8.78602 -92.77084,51.01301 -227.68648,47.58444 -142.31602,-3.61659 -221.34741,-38.64755 -226.69712,-46.24867 0,0 92.37671,-61.44051 227.68646,-61.44051 135.30975,0 226.69714,60.10474 226.69714,60.10474 z"
       style="fill:#803300;fill-opacity:1;fill-rule:evenodd;stroke:#000000;stroke-width:0.217879" /></clipPath><clipPath
     id="clipPath3462-8"
     clipPathUnits="userSpaceOnUse"><path
       sodipodi:type="arc"
       style="fill:#552200;fill-opacity:1;fill-rule:evenodd;stroke:none"
       id="path3464-4"
       sodipodi:cx="355"
       sodipodi:cy="319.09448"
       sodipodi:rx="245"
       sodipodi:ry="75"
       d="m 600,319.09448 a 245,75 0 1 1 -490,0 245,75 0 1 1 490,0 z"
       transform="translate(0,78.186906)" /></clipPath><radialGradient
     gradientUnits="userSpaceOnUse"
     gradientTransform="matrix(1.7507568,6.3254558e-8,-1.9845572e-8,1.0583001,-266.51866,-202.88679)"
     r="245"
     fy="564.09448"
     fx="355"
     cy="564.09448"
     cx="355"
     id="radialGradient3466-9"
     xlink:href="#linearGradient3256-8"
     inkscape:collect="always" /><radialGradient
     r="149.50005"
     fy="673.53516"
     fx="525.66193"
     cy="673.53516"
     cx="525.66193"
     gradientTransform="matrix(0.60113121,1.0949428e-8,-2.8171653e-8,2.5977523,-28.542598,-1107.8463)"
     gradientUnits="userSpaceOnUse"
     id="radialGradient3912-82"
     xlink:href="#linearGradient3223-9"
     inkscape:collect="always" /><inkscape:perspective
     sodipodi:type="inkscape:persp3d"
     inkscape:vp_x="0 : 0.5 : 1"
     inkscape:vp_y="0 : 1000 : 0"
     inkscape:vp_z="1 : 0.5 : 1"
     inkscape:persp3d-origin="0.5 : 0.33333333 : 1"
     id="perspective2440-91" /><radialGradient
     r="245"
     fy="564.09448"
     fx="355"
     cy="564.09448"
     cx="355"
     gradientTransform="matrix(1.7507568,6.3254558e-8,-1.9845572e-8,1.0583001,-266.51866,-202.88679)"
     gradientUnits="userSpaceOnUse"
     id="radialGradient3263-0"
     xlink:href="#linearGradient3256-8"
     inkscape:collect="always" /><linearGradient
     y2="789.75702"
     x2="535.81757"
     y1="688.01434"
     x1="394.66736"
     gradientUnits="userSpaceOnUse"
     id="linearGradient3265-7"
     xlink:href="#linearGradient3229-0"
     inkscape:collect="always" /><radialGradient
     r="149.50005"
     fy="673.53516"
     fx="525.66193"
     cy="673.53516"
     cx="525.66193"
     gradientTransform="matrix(0.60113121,1.0501092e-8,-2.8171653e-8,2.4913844,180.84056,-1015.2754)"
     gradientUnits="userSpaceOnUse"
     id="radialGradient3278-6"
     xlink:href="#linearGradient3223-9"
     inkscape:collect="always" /><inkscape:perspective
     id="perspective10"
     inkscape:persp3d-origin="372.04724 : 350.78739 : 1"
     inkscape:vp_z="744.09448 : 526.18109 : 1"
     inkscape:vp_y="0 : 1000 : 0"
     inkscape:vp_x="0 : 526.18109 : 1"
     sodipodi:type="inkscape:persp3d" /><inkscape:perspective
     sodipodi:type="inkscape:persp3d"
     inkscape:vp_x="0 : 526.18109 : 1"
     inkscape:vp_y="0 : 1000 : 0"
     inkscape:vp_z="744.09448 : 526.18109 : 1"
     inkscape:persp3d-origin="372.04724 : 350.78739 : 1"
     id="perspective3576" /><inkscape:perspective
     sodipodi:type="inkscape:persp3d"
     inkscape:vp_x="0 : 526.18109 : 1"
     inkscape:vp_y="0 : 1000 : 0"
     inkscape:vp_z="744.09448 : 526.18109 : 1"
     inkscape:persp3d-origin="372.04724 : 350.78739 : 1"
     id="perspective3626" /><inkscape:perspective
     id="perspective2967"
     inkscape:persp3d-origin="372.04724 : 350.78739 : 1"
     inkscape:vp_z="744.09448 : 526.18109 : 1"
     inkscape:vp_y="0 : 1000 : 0"
     inkscape:vp_x="0 : 526.18109 : 1"
     sodipodi:type="inkscape:persp3d" /><inkscape:perspective
     id="perspective4307"
     inkscape:persp3d-origin="372.04724 : 350.78739 : 1"
     inkscape:vp_z="744.09448 : 526.18109 : 1"
     inkscape:vp_y="0 : 1000 : 0"
     inkscape:vp_x="0 : 526.18109 : 1"
     sodipodi:type="inkscape:persp3d" /><linearGradient
     inkscape:collect="always"
     id="linearGradient3229-4"><stop
       style="stop-color: rgb(255, 255, 255); stop-opacity: 1;"
       offset="0"
       id="stop3231-8" /><stop
       style="stop-color: rgb(255, 255, 255); stop-opacity: 0;"
       offset="1"
       id="stop3234-8" /></linearGradient><linearGradient
     id="linearGradient3256-2"><stop
       style="stop-color: rgb(230, 230, 230); stop-opacity: 1;"
       offset="0"
       id="stop3258-4" /><stop
       style="stop-color: rgb(255, 255, 255); stop-opacity: 1;"
       offset="1"
       id="stop3260-5" /></linearGradient><linearGradient
     id="linearGradient3239-5"><stop
       style="stop-color: rgb(255, 255, 255); stop-opacity: 1;"
       offset="0"
       id="stop3241-1" /><stop
       style="stop-color: rgb(221, 221, 221); stop-opacity: 1;"
       offset="1"
       id="stop3243-7" /></linearGradient><linearGradient
     id="linearGradient3231-1"><stop
       style="stop-color: rgb(221, 221, 221); stop-opacity: 1;"
       offset="0"
       id="stop3233-1" /><stop
       style="stop-color: rgb(255, 255, 255); stop-opacity: 1;"
       offset="1"
       id="stop3235-5" /></linearGradient><linearGradient
     inkscape:collect="always"
     id="linearGradient3223-2"><stop
       style="stop-color: rgb(255, 255, 255); stop-opacity: 1;"
       offset="0"
       id="stop3225-7" /><stop
       style="stop-color: rgb(255, 255, 255); stop-opacity: 0;"
       offset="1"
       id="stop3227-6" /></linearGradient><inkscape:perspective
     sodipodi:type="inkscape:persp3d"
     inkscape:vp_x="0 : 526.18109 : 1"
     inkscape:vp_y="0 : 1000 : 0"
     inkscape:vp_z="744.09448 : 526.18109 : 1"
     inkscape:persp3d-origin="372.04724 : 350.78739 : 1"
     id="perspective9-1" /><radialGradient
     inkscape:collect="always"
     xlink:href="#linearGradient3223-2"
     id="radialGradient3229-3"
     cx="525.66193"
     cy="673.53516"
     fx="525.66193"
     fy="673.53516"
     r="149.50005"
     gradientTransform="matrix(0.601131,1.09494e-8,-2.81717e-8,2.59775,-28.5426,-1107.85)"
     gradientUnits="userSpaceOnUse" /><clipPath
     clipPathUnits="userSpaceOnUse"
     id="clipPath3252-2"><path
       style="fill:#803300;fill-opacity:1;fill-rule:evenodd;stroke:#000000;stroke-width:0.217879"
       d="m 582.1918,395.26609 c -0.67677,8.78602 -92.77084,51.01301 -227.68648,47.58444 -142.31602,-3.61659 -221.34741,-38.64755 -226.69712,-46.24867 0,0 92.37671,-61.44051 227.68646,-61.44051 135.30975,0 226.69714,60.10474 226.69714,60.10474 z"
       id="path3254-2"
       sodipodi:nodetypes="cscsc"
       inkscape:connector-curvature="0" /></clipPath><clipPath
     clipPathUnits="userSpaceOnUse"
     id="clipPath3462-1"><path
       transform="translate(0,78.1869)"
       d="m 600,319.09448 a 245,75 0 1 1 -490,0 245,75 0 1 1 490,0 z"
       sodipodi:ry="75"
       sodipodi:rx="245"
       sodipodi:cy="319.09448"
       sodipodi:cx="355"
       id="path3464-6"
       style="fill:#552200;fill-opacity:1;fill-rule:evenodd;stroke:none"
       sodipodi:type="arc" /></clipPath><radialGradient
     inkscape:collect="always"
     xlink:href="#linearGradient3256-2"
     id="radialGradient3466-8"
     cx="355"
     cy="564.09448"
     fx="355"
     fy="564.09448"
     r="245"
     gradientTransform="matrix(1.75076,6.32546e-8,-1.98456e-8,1.0583,-266.519,-202.887)"
     gradientUnits="userSpaceOnUse" /><radialGradient
     inkscape:collect="always"
     xlink:href="#linearGradient3223-2"
     id="radialGradient3912-8"
     gradientUnits="userSpaceOnUse"
     gradientTransform="matrix(0.601131,1.09494e-8,-2.81717e-8,2.59775,-28.5426,-1107.85)"
     cx="525.66193"
     cy="673.53516"
     fx="525.66193"
     fy="673.53516"
     r="149.50005" /><inkscape:perspective
     id="perspective2440-9"
     inkscape:persp3d-origin="0.5 : 0.33333333 : 1"
     inkscape:vp_z="1 : 0.5 : 1"
     inkscape:vp_y="0 : 1000 : 0"
     inkscape:vp_x="0 : 0.5 : 1"
     sodipodi:type="inkscape:persp3d" /><radialGradient
     inkscape:collect="always"
     xlink:href="#linearGradient3256-2"
     id="radialGradient3263-4"
     gradientUnits="userSpaceOnUse"
     gradientTransform="matrix(1.75076,6.32546e-8,-1.98456e-8,1.0583,-266.519,-202.887)"
     cx="355"
     cy="564.09448"
     fx="355"
     fy="564.09448"
     r="245" /><linearGradient
     inkscape:collect="always"
     xlink:href="#linearGradient3229-4"
     id="linearGradient3265-3"
     gradientUnits="userSpaceOnUse"
     x1="394.66736"
     y1="688.01434"
     x2="535.81757"
     y2="789.75702" /><radialGradient
     inkscape:collect="always"
     xlink:href="#linearGradient3223-2"
     id="radialGradient3278-1"
     gradientUnits="userSpaceOnUse"
     gradientTransform="matrix(0.601131,1.05011e-8,-2.81717e-8,2.49138,180.841,-1015.28)"
     cx="525.66193"
     cy="673.53516"
     fx="525.66193"
     fy="673.53516"
     r="149.50005" /><radialGradient
     r="149.50005"
     fy="673.53516"
     fx="525.66193"
     cy="673.53516"
     cx="525.66193"
     gradientTransform="matrix(0.60113121,1.0501092e-8,-2.8171653e-8,2.4913844,180.84056,-1015.2754)"
     gradientUnits="userSpaceOnUse"
     id="radialGradient3278"
     xlink:href="#linearGradient3223"
     inkscape:collect="always" /><linearGradient
     y2="789.75702"
     x2="535.81757"
     y1="688.01434"
     x1="394.66736"
     gradientUnits="userSpaceOnUse"
     id="linearGradient3265"
     xlink:href="#linearGradient3229"
     inkscape:collect="always" /><radialGradient
     r="245"
     fy="564.09448"
     fx="355"
     cy="564.09448"
     cx="355"
     gradientTransform="matrix(1.7507568,6.3254558e-8,-1.9845572e-8,1.0583001,-266.51866,-202.88679)"
     gradientUnits="userSpaceOnUse"
     id="radialGradient3263"
     xlink:href="#linearGradient3256"
     inkscape:collect="always" /><inkscape:perspective
     sodipodi:type="inkscape:persp3d"
     inkscape:vp_x="0 : 0.5 : 1"
     inkscape:vp_y="0 : 1000 : 0"
     inkscape:vp_z="1 : 0.5 : 1"
     inkscape:persp3d-origin="0.5 : 0.33333333 : 1"
     id="perspective2440" /><radialGradient
     r="149.50005"
     fy="673.53516"
     fx="525.66193"
     cy="673.53516"
     cx="525.66193"
     gradientTransform="matrix(0.60113121,1.0949428e-8,-2.8171653e-8,2.5977523,-28.542598,-1107.8463)"
     gradientUnits="userSpaceOnUse"
     id="radialGradient3912"
     xlink:href="#linearGradient3223"
     inkscape:collect="always" /><radialGradient
     gradientUnits="userSpaceOnUse"
     gradientTransform="matrix(1.7507568,6.3254558e-8,-1.9845572e-8,1.0583001,-266.51866,-202.88679)"
     r="245"
     fy="564.09448"
     fx="355"
     cy="564.09448"
     cx="355"
     id="radialGradient3466"
     xlink:href="#linearGradient3256"
     inkscape:collect="always" /><clipPath
     id="clipPath3462"
     clipPathUnits="userSpaceOnUse"><path
       sodipodi:type="arc"
       style="fill:#552200;fill-opacity:1;fill-rule:evenodd;stroke:none"
       id="path3464"
       sodipodi:cx="355"
       sodipodi:cy="319.09448"
       sodipodi:rx="245"
       sodipodi:ry="75"
       d="m 600,319.09448 a 245,75 0 1 1 -490,0 245,75 0 1 1 490,0 z"
       transform="translate(0,78.186906)" /></clipPath><clipPath
     id="clipPath3252"
     clipPathUnits="userSpaceOnUse"><path
       inkscape:connector-curvature="0"
       sodipodi:nodetypes="cscsc"
       id="path3254"
       d="m 582.1918,395.26609 c -0.67677,8.78602 -92.77084,51.01301 -227.68648,47.58444 -142.31602,-3.61659 -221.34741,-38.64755 -226.69712,-46.24867 0,0 92.37671,-61.44051 227.68646,-61.44051 135.30975,0 226.69714,60.10474 226.69714,60.10474 z"
       style="fill:#803300;fill-opacity:1;fill-rule:evenodd;stroke:#000000;stroke-width:0.217879" /></clipPath><radialGradient
     gradientUnits="userSpaceOnUse"
     gradientTransform="matrix(0.60113121,1.0949428e-8,-2.8171653e-8,2.5977523,-28.542598,-1107.8463)"
     r="149.50005"
     fy="673.53516"
     fx="525.66193"
     cy="673.53516"
     cx="525.66193"
     id="radialGradient3229"
     xlink:href="#linearGradient3223"
     inkscape:collect="always" /><inkscape:perspective
     id="perspective9"
     inkscape:persp3d-origin="372.04724 : 350.78739 : 1"
     inkscape:vp_z="744.09448 : 526.18109 : 1"
     inkscape:vp_y="0 : 1000 : 0"
     inkscape:vp_x="0 : 526.18109 : 1"
     sodipodi:type="inkscape:persp3d" /><linearGradient
     id="linearGradient3223"
     inkscape:collect="always"><stop
       id="stop3225"
       offset="0"
       style="stop-color:#ffffff;stop-opacity:1;" /><stop
       id="stop3227"
       offset="1"
       style="stop-color:#ffffff;stop-opacity:0;" /></linearGradient><linearGradient
     id="linearGradient3231"><stop
       id="stop3233"
       offset="0"
       style="stop-color:#dddddd;stop-opacity:1;" /><stop
       id="stop3235"
       offset="1"
       style="stop-color:#ffffff;stop-opacity:1;" /></linearGradient><linearGradient
     id="linearGradient3239"><stop
       id="stop3241"
       offset="0"
       style="stop-color:#ffffff;stop-opacity:1;" /><stop
       id="stop3243"
       offset="1"
       style="stop-color:#dddddd;stop-opacity:1;" /></linearGradient><linearGradient
     id="linearGradient3256"><stop
       id="stop3258"
       offset="0"
       style="stop-color:#e6e6e6;stop-opacity:1;" /><stop
       id="stop3260"
       offset="1"
       style="stop-color:#ffffff;stop-opacity:1;" /></linearGradient><linearGradient
     id="linearGradient3229"
     inkscape:collect="always"><stop
       id="stop3231"
       offset="0"
       style="stop-color:#ffffff;stop-opacity:1;" /><stop
       id="stop3234"
       offset="1"
       style="stop-color:#ffffff;stop-opacity:0;" /></linearGradient></defs><sodipodi:namedview
   pagecolor="#ffffff"
   bordercolor="#666666"
   borderopacity="1"
   objecttolerance="10"
   gridtolerance="10"
   guidetolerance="10"
   inkscape:pageopacity="0"
   inkscape:pageshadow="2"
   inkscape:window-width="1045"
   inkscape:window-height="671"
   id="namedview5"
   showgrid="false"
   inkscape:zoom="4.1627714"
   inkscape:cx="14.413475"
   inkscape:cy="22.579204"
   inkscape:window-x="94"
   inkscape:window-y="0"
   inkscape:window-maximized="0"
   inkscape:current-layer="Layer_1" />

<g
   transform="matrix(0.37744265,0,0,0.37744265,-49.498878,-208.61573)"
   id="layer1"
   inkscape:label="Vrstva 1"><g
     id="g3664"><path
       id="path4680"
       style="fill:#ffffff;fill-opacity:1;fill-rule:nonzero;stroke:none"
       d="m 208.07991,561.06139 c -6.59594,0.62966 -9.28661,3.14141 -9.57219,3.427 l -0.36816,0.36816 c 0,0 -1.25588,6.27594 -1.65845,8.28879 -2.48767,0.0654 -27.78757,0.70879 -27.78757,0.70879 l -0.41289,0.2787 c -0.3716,0.24774 -9.15242,6.26907 -12.24222,21.04369 -0.50235,2.39821 -0.70536,4.70351 -0.70536,6.86087 0,8.39889 3.05884,14.50624 3.22055,14.82279 l 0.57805,1.13545 c 0,0 6.84367,-1.22147 9.79928,-1.7479 -1.7479,9.60315 -4.26998,28.23831 -4.65878,57.6912 l -0.0172,1.32814 c 0,0 4.48675,1.24211 5.9009,1.63436 0.28215,1.8408 1.81328,11.79148 1.81328,11.79148 0.0275,0.39224 0.24774,2.14703 1.35222,3.07948 0.007,0.0103 2.9625,0.98061 2.9625,0.98061 -0.19269,-0.0172 13.11617,1.84769 13.11617,1.84769 0.73976,0.0929 3.18614,0.2787 4.42826,-1.24555 0,-0.003 0.91868,-3.43732 0.91868,-3.43732 l -0.33031,0.0688 c 0,0 -2.04037,-4.1702 -3.60936,-7.36322 1.98532,0.54708 6.26218,1.73414 6.26218,1.73414 l -0.11354,-2.37756 c -0.0103,-0.18924 -0.40945,-8.78082 -0.40945,-20.87165 0,-14.57505 0.61245,-34.18738 3.14485,-50.34863 1.62748,-0.29246 6.8127,-1.21802 8.2303,-1.4692 0.11698,3.75731 2.19176,70.56997 2.19176,70.56997 l 1.79263,-0.13419 c 0.21333,-0.0172 4.9719,-0.48171 12.41426,-2.50831 -0.98061,3.49925 -2.80077,10.00572 -2.80077,10.00572 0.0654,-0.18924 0.19956,3.05884 0.19956,3.05884 0.88771,1.91994 2.7354,2.42229 3.69193,2.41541 0,0.0275 9.99541,1.76855 9.99541,1.76855 l 1.3591,0.23741 c 0,0 10.55969,-25.61301 10.99666,-26.6762 1.01159,-0.56084 8.82899,-4.90308 8.82899,-4.90308 0,0 0.0275,-0.95997 0.0275,-1.0047 0,-3.74355 -10.54593,-37.29095 -17.30358,-58.43098 2.95905,-0.52987 14.21722,-2.53928 14.21722,-2.53928 l 0.40601,-0.5746 c 0.15483,-0.21333 3.21711,-4.6175 3.21711,-11.01387 0,-1.02535 -0.0791,-2.09887 -0.2615,-3.21367 -1.24211,-7.72106 -6.69228,-13.72519 -6.92625,-13.97636 l -0.52643,-0.57461 c 0,0 -29.28086,0.7432 -31.35564,0.79825 -0.17548,-0.52643 -0.35784,-1.32125 -0.35784,-2.59777 l 0.58493,-7.03979 -0.79138,-0.69848 c -0.44385,-0.30966 -2.96593,-1.80984 -9.44144,-1.19738"
       inkscape:connector-curvature="0" /><g
       clip-path="url(#clipPath4686)"
       id="g4692"
       transform="matrix(3.4407591,0,0,-3.4407591,115.13744,773.78873)"><g
         transform="translate(39.9326,50.6309)"
         id="g4694"><path
           inkscape:connector-curvature="0"
           d="M 0,0 C 0,0 1.126,1.588 0.772,3.766 0.431,5.887 -1.114,7.569 -1.114,7.569 l -9.209,-0.234 c 0,0 -0.293,0.356 -0.293,1.263 0,0.908 0.152,1.84 0.152,1.84 0,0 -0.615,0.429 -2.41,0.259 -1.792,-0.171 -2.475,-0.852 -2.475,-0.852 C -15.555,8.992 -15.727,8.1 -15.88,7.193 L -24.209,6.98 c 0,0 -2.48,-1.659 -3.347,-5.803 -0.688,-3.28 0.687,-5.972 0.687,-5.972 l 3.194,0.57 c -0.487,-2.448 -1.354,-8.07 -1.478,-17.393 l 1.655,-0.459 0.577,-3.746 c 0,0 0.034,-0.432 0.221,-0.589 0.189,-0.157 0.552,-0.167 0.552,-0.167 l 3.868,-0.542 c 0,0 0.616,-0.079 0.831,0.183 0.141,0.173 0.109,0.443 0.109,0.443 l -1.538,3.14 2.225,-0.618 c 0,0 -0.595,12.383 0.846,21.152 l 1.891,0.338 1.432,0.254 0.637,-20.565 c 0,0 1.691,0.127 4.366,0.942 l -1.051,-3.754 c 0,0 -0.106,-0.256 0.029,-0.543 0.193,-0.418 0.616,-0.414 0.616,-0.414 l 2.994,-0.522 3.11,7.543 c 0.797,0.406 1.624,0.861 2.47,1.373 0.076,0.885 -4.139,14.118 -5.18,17.367 L 0,0 z"
           style="fill:#1b2360;fill-opacity:1;fill-rule:nonzero;stroke:none"
           id="path4696" /></g></g><path
       id="path4800"
       style="fill:#ffffff;fill-opacity:1;fill-rule:nonzero;stroke:none"
       d="m 215.94102,588.77395 2.79734,-2.25714 -4.5246,0.31999 -3.37539,-7.65913 0.62622,7.05012 -4.33535,-3.90526 1.7307,5.16114 -5.48113,2.36724 5.31941,0.45418 -3.69881,2.904 4.77233,-0.56429 1.55866,3.55087 1.31437,-2.98658 4.77922,4.75857 -2.05414,-6.53056 5.18179,-1.04599 -4.61062,-1.61716 z"
       inkscape:connector-curvature="0" /><path
       id="path4804"
       style="fill:#ffffff;fill-opacity:1;fill-rule:nonzero;stroke:none"
       d="m 183.02534,577.71914 -0.31999,0.0344 -2.20209,3.61624 c 0,0 0.77073,0.65374 1.09072,0.93244 -0.42321,0.086 -1.21458,0.25462 -1.21458,0.25462 l -1.66877,4.03945 c 0,0 0.95309,0.95309 1.34878,1.35222 -0.47139,0.79137 -5.4949,9.21779 -5.4949,9.21779 l 2.75261,7.52838 5.85617,-0.17892 c 0,0 2.10231,-4.78609 2.55649,-5.82176 0.89803,0.48859 4.1702,2.26746 4.1702,2.26746 l 1.83736,-4.71728 c 0,0 -2.61497,-2.19177 -3.21023,-2.69068 0.20301,-0.43009 0.4301,-0.91524 0.65719,-1.39694 0.95997,0.32687 8.6363,2.92464 8.6363,2.92464 l 1.07352,-6.41357 c 0,0 -5.5121,-2.74229 -6.3654,-3.1655 0.11698,-0.36128 0.18236,-0.56085 0.30278,-0.92901 0.98062,0.18924 8.39546,1.62748 8.39546,1.62748 l -0.0654,-5.68413 -9.20403,-3.65065 c -0.30967,-0.0413 -8.93221,0.85331 -8.93221,0.85331"
       inkscape:connector-curvature="0" /><g
       clip-path="url(#clipPath4810)"
       id="g4816"
       transform="matrix(3.4407591,0,0,-3.4407591,115.13744,773.78873)"><g
         transform="translate(19.6484,49.3818)"
         id="g4818"><path
           inkscape:connector-curvature="0"
           d="M 0,0 -1.446,-0.044 -2.169,1.931 -0.542,4.659 -0.949,5.067 -0.55,6.032 0.083,6.165 -0.406,6.582 0.102,7.414 2.608,7.674 5.165,6.661 5.18,5.367 2.803,5.829 2.614,5.244 4.484,4.313 4.232,2.807 1.772,3.64 1.448,2.949 2.388,2.161 1.981,1.116 0.778,1.771 0,0 z"
           style="fill:#7b72ac;fill-opacity:1;fill-rule:nonzero;stroke:none"
           id="path4820" /></g></g><path
       id="path4824"
       style="fill:#ffffff;fill-opacity:1;fill-rule:nonzero;stroke:none"
       d="m 221.6396,566.419 -1.96123,5.60156 c 0,0 6.54432,0.19612 6.93313,0.20644 0.22365,0.1686 1.46232,1.11137 2.31907,1.76167 -1.39007,0.75353 -7.27721,3.95343 -7.27721,3.95343 l 1.86145,7.46989 c 0,0 5.06136,-3.05883 5.57059,-3.3685 0.35096,0.15139 1.22147,0.52299 2.01629,0.86363 -1.01503,1.05975 -5.2334,5.46736 -5.2334,5.46736 l 2.6253,4.89964 c 0,0 2.58745,-1.80983 3.40635,-2.381 0.46451,0.88083 1.63092,3.07948 1.63092,3.07948 l 2.87304,4.32159 5.61188,-3.92246 c 0,0 -3.39603,-13.64605 -3.40636,-13.68734 0.0447,-0.003 0.37505,-1.93371 0.37505,-1.93371 l 0,-0.0138 c 0,-0.30967 -0.20301,-4.77578 -0.20301,-4.77578 l -0.0103,-0.26149 -1.7892,-1.69974 -5.65316,-5.68413 -9.53091,-0.35096 -0.15827,0.45418 z"
       inkscape:connector-curvature="0" /><g
       clip-path="url(#clipPath4830)"
       id="g4836"
       transform="matrix(3.4407591,0,0,-3.4407591,115.13744,773.78873)"><g
         transform="translate(34.5664,52.3652)"
         id="g4838"><path
           inkscape:connector-curvature="0"
           d="M 0,0 0.728,-1.095 2.094,-0.14 1.133,3.718 1.24,4.351 1.18,5.703 0.716,6.145 -0.879,7.747 -3.436,7.841 -3.92,6.457 -2.102,6.403 -1.146,5.677 -3.39,4.458 -2.947,2.679 -1.465,3.574 -0.537,3.178 -2.152,1.491 -1.555,0.376 -0.564,1.068 0,0 z"
           style="fill:#7b72ac;fill-opacity:1;fill-rule:nonzero;stroke:none"
           id="path4840" /></g></g><path
       id="path4844"
       style="fill:#ffffff;fill-opacity:1;fill-rule:nonzero;stroke:none"
       d="m 207.61954,569.15922 c 0,0.58493 -0.49203,1.06319 -1.08384,1.06319 -0.59525,0 -1.0804,-0.47826 -1.0804,-1.06319 0,-0.58493 0.48515,-1.06319 1.0804,-1.06319 0.59181,0 1.08384,0.47826 1.08384,1.06319"
       inkscape:connector-curvature="0" /><path
       id="path4848"
       style="fill:#ffffff;fill-opacity:1;fill-rule:nonzero;stroke:none"
       d="m 213.20252,569.15922 c 0,0.58493 -0.48859,1.06319 -1.07696,1.06319 -0.60213,0 -1.08728,-0.47826 -1.08728,-1.06319 0,-0.58493 0.48515,-1.06319 1.08728,-1.06319 0.58837,0 1.07696,0.47826 1.07696,1.06319"
       inkscape:connector-curvature="0" /></g></g></svg>