<?xml version="1.0" encoding="UTF-8" standalone="no"?>
<!-- Generator: Adobe Illustrator 16.0.4, SVG Export Plug-In . SVG Version: 6.00 Build 0)  -->

<svg
   xmlns:dc="http://purl.org/dc/elements/1.1/"
   xmlns:cc="http://creativecommons.org/ns#"
   xmlns:rdf="http://www.w3.org/1999/02/22-rdf-syntax-ns#"
   xmlns:svg="http://www.w3.org/2000/svg"
   xmlns="http://www.w3.org/2000/svg"
   xmlns:sodipodi="http://sodipodi.sourceforge.net/DTD/sodipodi-0.dtd"
   xmlns:inkscape="http://www.inkscape.org/namespaces/inkscape"
   version="1.1"
   id="Layer_1"
   x="0px"
   y="0px"
   width="56.693px"
   height="56.693px"
   viewBox="0 0 56.693 56.693"
   enable-background="new 0 0 56.693 56.693"
   xml:space="preserve"
   inkscape:version="0.48.2 r9819"
   sodipodi:docname="05-twitter.svg"><metadata
   id="metadata9"><rdf:RDF><cc:Work
       rdf:about=""><dc:format>image/svg+xml</dc:format><dc:type
         rdf:resource="http://purl.org/dc/dcmitype/StillImage" /><dc:title></dc:title></cc:Work></rdf:RDF></metadata><defs
   id="defs7" /><sodipodi:namedview
   pagecolor="#ffffff"
   bordercolor="#666666"
   borderopacity="1"
   objecttolerance="10"
   gridtolerance="10"
   guidetolerance="10"
   inkscape:pageopacity="0"
   inkscape:pageshadow="2"
   inkscape:window-width="721"
   inkscape:window-height="480"
   id="namedview5"
   showgrid="false"
   inkscape:zoom="4.1627714"
   inkscape:cx="28.3465"
   inkscape:cy="28.3465"
   inkscape:window-x="200"
   inkscape:window-y="11"
   inkscape:window-maximized="0"
   inkscape:current-layer="Layer_1" />
<path
   d="M40.952,42.347h-9.32c-6.631,0-7.688-2.934-7.688-5.654c0-1.291,0.08-3.42,0.16-6.027h15.572  c2.33,0,6.777-0.955,6.777-5.218c0-4.26-2.053-7.053-4.803-7.053H24.298C24.28,12.247,23.88,6.122,17.875,6.122  c-2.483,0-4.498,1.02-5.348,3.553c-1.115,3.328-0.82,7.225-0.806,10.69c0.004,0.658,0.007,1.32,0.009,1.98  c0.008,2.27,0.054,4.553,0.064,6.834c0.006,2.455,0.009,4.91,0.009,7.363c0,13.746,12.494,17.641,14.89,17.641  s11.783,0.223,13.479,0.223s6.562-0.449,6.562-5.371S43.282,42.347,40.952,42.347z"
   id="path3"
   style="fill:#55acee;fill-opacity:1" />
</svg>