<svg xmlns:svg="http://www.w3.org/2000/svg" xmlns="http://www.w3.org/2000/svg" version="1.1" x="0" y="0" width="200" height="183" viewBox="0 0 200 183" enable-background="new 0 0 200 200" xml:space="preserve"><path d="m90.3 181.7c-0.7-0.1-3-0.3-5.1-0.5-30.2-2.8-59.3-15.3-81.6-35.2-2.6-2.3-3.1-3.2-2.2-4.1 0.7-0.7 1.7-0.4 6.2 2.1 30.2 16.6 66.3 25 101 23.7 7.4-0.3 7.6-0.3 14.9-1.1 16.4-1.9 32.7-6 48.6-12.2 5.3-2.1 6.6-2.3 7.8-1 1.6 1.6 1 3-2.8 5.6-16.4 11.5-39.3 19.6-63.2 22.3-4 0.5-20.9 0.9-23.8 0.6l0 0zM183.2 173.5 183.2 173.5c-0.6-0.6-0.5-0.7 1.1-4.9 3.3-8.3 5.1-15 5.1-18.6 0-2.6-0.9-3.7-3.6-4.5-2.6-0.8-12.1-0.7-18.4 0.2-4.4 0.6-5.8 0.5-5.8-0.3 0-1.5 6.4-5.1 11.5-6.5 6.4-1.7 15.5-1.8 21.1-0.3 3.7 1 4.1 1.6 4.1 5.8 0 4.9-1.9 12-4.7 17.7-3.4 6.9-9 12.9-10.5 11.4z" fill="#ff9804"/><path d="M80.2 122.4C72.8 121.1 66.4 117.4 62.1 112.2 54.1 102.2 53 84.5 59.7 72c3.8-7.1 9.3-12.1 17.8-15.9 7.8-3.5 17.1-5.5 31.7-6.9 3.2-0.3 6.4-0.6 7.2-0.7l1.4-0.2-0.1-6.5c-0.1-5.6-0.2-6.8-0.9-8.7-1.4-4-3.7-6.3-8-8-2.5-1-8.5-1.1-11.3-0.1-4.3 1.4-7.6 3.9-9.7 7.1-0.5 0.8-1.4 2.8-1.8 4.3-0.7 2.1-1.1 3-2 3.7-0.6 0.5-1.4 1-1.7 1-0.3 0-5.1-0.6-10.7-1.3-10.6-1.3-11.9-1.7-12.6-3.2-0.5-1 0.1-4 1.4-7.9 5-14.9 18.3-24.1 37.7-26.4 4.8-0.5 13.7-0.2 18.4 0.6 11.2 2.1 20.3 7 24.8 13.4 2.7 3.7 3.8 6.6 5.1 12.2 0.5 2.1 0.6 6.3 0.8 30.3 0.2 27 0.2 27.9 0.9 30.4 0.9 3.4 2.6 6.6 5.2 10 2.7 3.5 2.9 3.9 2.9 5.5 0 1.6-0.2 1.9-5.8 6.7-12.4 10.7-12.2 10.6-14 10.5-0.8 0-1.8-0.1-2.1-0.3-1.3-0.5-7.1-6.7-9.6-10.2-1.5-2.1-2.8-3.7-2.9-3.7-0.1 0-1.8 1.5-3.8 3.4-8 7.4-13.6 10.2-22.9 11.4-4.6 0.6-11.6 0.6-14.9 0l0 0zm23.7-21.1c4.2-1.6 7.6-4.6 10.1-9.3 3.1-5.7 3.8-9.6 3.8-19.9l0-7-3.6 0.1c-12.8 0.3-20.7 3.4-25.1 9.8-2.1 3-2.9 5.8-3.1 10.2-0.2 4.5 0.2 7.1 1.6 10 2.9 6 9.5 8.5 16.2 6l0 0z" fill="#030104"/></svg>